<svg width="300" height="120" viewBox="0 0 300 120" xmlns="http://www.w3.org/2000/svg">
  <!-- Hexagon layers -->
  <g transform="translate(150, 35)">
    <!-- Outer hexagons -->
    <path d="M-30,-17.32 L-15,-25.98 L15,-25.98 L30,-17.32 L15,-8.66 L-15,-8.66 Z" fill="none" stroke="#000" stroke-width="3"/>
    <path d="M-25,-14.43 L-10,-23.09 L20,-23.09 L35,-14.43 L20,-5.77 L-10,-5.77 Z" fill="none" stroke="#000" stroke-width="3"/>
    <path d="M-20,-11.55 L-5,-20.21 L25,-20.21 L40,-11.55 L25,-2.89 L-5,-2.89 Z" fill="none" stroke="#000" stroke-width="3"/>
    
    <!-- Inner layers -->
    <path d="M-15,-8.66 L0,-17.32 L30,-17.32 L45,-8.66 L30,0 L0,0 Z" fill="none" stroke="#000" stroke-width="3"/>
    <path d="M-10,-5.77 L5,-14.43 L35,-14.43 L50,-5.77 L35,2.89 L5,2.89 Z" fill="none" stroke="#000" stroke-width="3"/>
    <path d="M-5,-2.89 L10,-11.55 L40,-11.55 L55,-2.89 L40,5.77 L10,5.77 Z" fill="none" stroke="#000" stroke-width="3"/>
  </g>
  
  <!-- Text -->
  <text x="150" y="85" text-anchor="middle" font-family="Arial, sans-serif" font-size="36" font-weight="bold" fill="#000">
    Pisos Pró
  </text>
  <text x="150" y="105" text-anchor="middle" font-family="Arial, sans-serif" font-size="16" fill="#000">
    Venda &amp; Instalação
  </text>
</svg>