<svg xmlns="http://www.w3.org/2000/svg" viewBox="0 0 379.971 103.028">
  <g transform="matrix(0.026701, 0, 0, -0.026701, -165.69014, 205.144165)" fill="#000000" stroke="none" style="">
    <path d="M7788 7527 c-32 -18 -58 -34 -58 -37 1 -3 65 -41 143 -86 126 -71
618 -355 1082 -624 88 -51 199 -115 248 -142 l87 -50 0 -347 0 -347 -74 -42
c-40 -23 -76 -42 -80 -42 -3 0 -6 154 -6 343 l0 343 -167 96 c-93 53 -208 120
-258 148 -121 71 -600 347 -650 375 -22 13 -141 82 -264 153 l-225 131 -58
-32 c-32 -18 -58 -34 -58 -37 0 -3 67 -43 148 -89 81 -47 215 -124 297 -171
83 -48 339 -196 570 -330 231 -133 448 -258 482 -278 l63 -37 0 -346 0 -346
-71 -42 c-40 -22 -76 -41 -80 -41 -5 0 -9 155 -9 343 l0 344 -22 11 c-13 6
-45 24 -73 40 -27 16 -151 88 -275 159 -124 72 -371 215 -550 318 -414 240
-633 366 -640 368 -3 1 -32 -13 -64 -32 l-59 -33 69 -40 c103 -60 748 -433
1004 -581 227 -131 245 -141 403 -232 l87 -50 0 -347 0 -347 -69 -41 c-38 -22
-73 -40 -78 -40 -4 0 -7 152 -5 337 2 314 1 339 -15 349 -34 21 -607 352
-1348 779 -93 54 -175 101 -181 106 -9 7 -373 -195 -691 -385 l-43 -26 0 -902
0 -903 56 -32 c31 -18 59 -33 62 -33 4 0 6 405 4 900 l-2 901 42 25 c24 14 88
52 143 83 55 32 171 99 257 149 l157 92 70 -41 c39 -22 73 -44 76 -49 2 -4
-23 -24 -58 -44 -34 -20 -165 -96 -292 -169 l-230 -133 -3 -906 -2 -906 55
-31 c30 -17 57 -31 60 -31 3 0 6 406 7 902 l3 902 290 168 c160 92 296 168
304 168 24 0 154 -81 144 -90 -4 -5 -136 -83 -293 -173 l-285 -165 -3 -905 -2
-905 54 -31 c29 -17 56 -31 60 -31 3 0 6 405 6 899 l0 900 58 34 c172 103 532
307 540 307 18 0 152 -82 147 -89 -2 -5 -46 -32 -97 -61 -51 -29 -182 -104
-290 -167 l-198 -114 0 -893 c0 -1005 -9 -898 80 -948 68 -37 443 -253 547
-315 l92 -54 93 54 c51 31 192 112 313 182 121 70 261 151 310 180 50 28 214
123 365 210 151 87 322 186 380 220 l105 62 3 66 c2 37 0 67 -3 67 -3 0 -97
-53 -208 -117 -111 -64 -359 -207 -552 -318 -192 -111 -453 -261 -578 -334
l-228 -132 -177 102 c-97 56 -232 134 -299 173 l-123 70 0 88 c0 48 3 88 8 88
7 0 83 -43 438 -248 77 -45 146 -82 153 -82 7 0 101 51 209 114 109 63 296
171 417 241 121 69 243 140 270 156 28 16 190 110 360 208 l310 178 3 67 c2
50 0 66 -11 66 -7 0 -17 -4 -22 -9 -6 -5 -86 -53 -180 -107 -1011 -581 -1277
-735 -1317 -760 l-36 -23 -289 165 c-158 91 -294 171 -301 178 -9 9 -12 38
-10 99 l3 85 295 -170 295 -170 60 33 c53 29 761 437 1080 622 66 38 191 110
278 159 l157 91 0 69 0 70 -42 -24 c-40 -23 -336 -193 -718 -415 -85 -49 -276
-159 -425 -245 -148 -85 -294 -170 -324 -187 -30 -18 -61 -30 -70 -28 -9 3
-144 79 -301 170 l-285 165 -3 91 c-1 50 -1 91 1 91 2 0 118 -66 258 -147 140
-80 273 -157 296 -170 l42 -24 258 149 c254 147 429 248 488 282 31 17 172 99
572 331 l233 134 0 416 0 415 -162 94 c-90 52 -273 158 -408 235 -135 78 -405
234 -600 347 -195 113 -364 210 -375 215 -16 9 -31 5 -77 -20z m375 -1257
l286 -165 -2 -350 -2 -349 -290 -168 c-162 -93 -297 -165 -305 -162 -8 3 -144
80 -303 172 l-287 166 2 344 3 344 290 169 c160 92 297 167 306 166 8 -1 144
-76 302 -167z"></path>
  </g>
  <text style="white-space: pre; stroke-width: 1; font-size: 54px;" text-anchor="middle" font-weight="bold" font-size="36" font-family="Arial, sans-serif" fill="#000" y="57.603" x="229.517">
    Pisos Pró
  </text>
  <text x="229.517" y="87.526" text-anchor="middle" font-family="Arial, sans-serif" font-size="16" fill="#000" style="white-space: pre; stroke-width: 1; font-size: 23.9px;">
    Venda &amp; Instalação
  </text>
</svg>